# Blender v2.79 (sub 0) OBJ File: ''
# www.blender.org
mtllib katana.mtl
o katana
v 0.058256 0.488023 -0.078512
v 0.001255 0.475584 -0.093864
v 0.000281 0.490125 -0.095450
v -0.055600 0.481334 -0.078506
v -0.056644 0.496703 0.056148
v -0.080013 0.494616 -0.011649
v -0.079115 0.480311 -0.010020
v -0.000053 0.494558 0.073666
v -0.000949 0.508860 0.072034
v 0.056987 0.503339 0.056043
v 0.080013 0.489706 -0.010062
v 0.079122 0.504312 -0.011868
v 0.024636 0.497610 -0.009972
v 0.039538 0.249937 0.022010
v 0.012731 0.491477 -0.051176
v 0.027409 0.243747 -0.019296
v 0.041993 0.001231 0.013204
v 0.054129 0.007727 0.054338
v 0.041372 0.012398 0.095450
v 0.026703 0.254839 0.063171
v 0.011879 0.502286 0.031138
v 0.002580 0.242439 -0.019116
v 0.017250 -0.000000 0.013159
v -0.010180 0.247111 0.021991
v 0.004487 0.004669 0.054274
v -0.012244 0.489883 -0.051150
v -0.025006 0.494557 -0.010039
v -0.012876 0.500742 0.031266
v 0.001947 0.253299 0.063300
v 0.016703 0.010932 0.095354
v 0.029157 0.006137 0.054366
v -0.069421 1.648210 0.037243
v -0.054576 1.342560 0.007215
v -0.047589 1.342980 0.007215
v -0.007922 0.531973 -0.048872
v -0.006458 0.541602 0.016222
v -0.002337 0.532224 -0.048900
v 0.000781 0.541850 0.016268
v 0.003169 0.532709 -0.048877
v 0.005185 0.501262 0.021770
v 0.005609 0.491991 -0.043329
v -0.005993 0.500453 0.022001
v -0.005484 0.491259 -0.043323
v -0.067474 1.615780 -0.007261
v -0.064552 1.567120 -0.032265
v -0.051173 1.344270 -0.059033
v -0.016358 0.709067 0.001149
v -0.009414 0.709495 0.001143
v -0.023475 0.939639 -0.006735
v -0.030418 0.939207 -0.006726
v -0.012506 0.702159 -0.064638
v -0.026832 0.939619 -0.073203
v -0.042546 1.142170 -0.004303
v -0.039127 1.143630 -0.070803
v -0.035558 1.142580 -0.004303
vt 0.425627 0.358654
vt 0.558136 0.394029
vt 0.558135 0.397819
vt 0.695153 0.358682
vt 0.695152 0.046684
vt 0.748911 0.203732
vt 0.748912 0.199942
vt 0.693917 0.355189
vt 0.558134 0.005855
vt 0.558133 0.009645
vt 0.425626 0.046684
vt 0.375169 0.199942
vt 0.375168 0.203732
vt 0.864044 0.011666
vt 0.864633 0.509401
vt 0.787109 0.012231
vt 0.788086 0.511255
vt 0.789713 0.995630
vt 0.867174 0.997065
vt 0.949396 0.995275
vt 0.948686 0.509479
vt 0.950106 0.013030
vt 0.788086 0.511255
vt 0.789713 0.995630
vt 0.864633 0.509401
vt 0.867174 0.997065
vt 0.787109 0.012231
vt 0.864044 0.011666
vt 0.950106 0.013030
vt 0.948686 0.509479
vt 0.949396 0.995275
vt 0.427176 0.355189
vt 0.763672 0.990421
vt 0.763672 0.507349
vt 0.763672 0.016138
vt 0.977805 0.015161
vt 0.975675 0.510900
vt 0.970703 0.995275
vt 0.492096 0.954720
vt 0.434009 0.954720
vt 0.463052 0.864713
vt 0.404965 0.864713
vt 0.434008 0.774706
vt 0.492095 0.774706
vt 0.521139 0.864713
vt 0.738554 0.342929
vt 0.728352 0.994860
vt 0.732193 0.994827
vt 0.395926 0.643136
vt 0.403607 0.454388
vt 0.400911 0.638151
vt 0.397600 0.637555
vt 0.403607 0.454388
vt 0.400911 0.638151
vt 0.530446 0.451631
vt 0.527995 0.638151
vt 0.529527 0.441980
vt 0.404527 0.441980
vt 0.530446 0.451631
vt 0.527995 0.638151
vt 0.529525 0.653797
vt 0.399349 0.661067
vt 0.399870 0.651692
vt 0.646367 0.442930
vt 0.594804 0.550742
vt 0.582012 0.996152
vt 0.728352 0.994860
vt 0.166691 0.994441
vt 0.174504 0.995643
vt 0.163086 0.579778
vt 0.168494 0.579177
vt 0.170898 0.002254
vt 0.159440 0.001172
vt 0.015169 0.995964
vt 0.012912 0.577908
vt 0.012044 0.001693
vt 0.166691 0.994441
vt 0.163086 0.579778
vt 0.159440 0.001172
vt 0.329279 0.000888
vt 0.182356 0.000651
vt 0.329231 0.496485
vt 0.178711 0.496627
vt 0.330794 0.995964
vt 0.183454 0.997210
vt 0.339425 0.001767
vt 0.339932 0.495206
vt 0.339127 0.995443
vt 0.329279 0.000888
vt 0.329231 0.496485
vt 0.330794 0.995964
vn 0.7045 -0.0368 -0.7088
vn 0.0474 -0.8562 -0.5145
vn -0.0458 0.7215 -0.6909
vn -0.6911 -0.1221 -0.7124
vn -0.7022 0.0392 0.7109
vn -0.5438 0.8335 -0.0977
vn -0.4419 -0.8916 0.0993
vn 0.0400 -0.7192 0.6937
vn -0.0526 0.8579 0.5111
vn 0.6954 0.1251 0.7076
vn 0.5446 -0.8326 0.1007
vn 0.4406 0.8925 -0.0961
vn 0.9922 0.0729 0.1006
vn 0.9982 0.0603 0.0015
vn 0.7770 -0.0335 -0.6285
vn 0.5999 -0.0685 -0.7971
vn 0.3394 -0.6997 -0.6286
vn 0.8518 -0.5239 -0.0044
vn 0.6330 -0.5198 0.5737
vn 0.5900 0.1400 0.7952
vn 0.3818 0.1402 0.9136
vn -0.5918 -0.1402 -0.7938
vn -0.5611 -0.7211 -0.4065
vn -0.9982 -0.0602 -0.0008
vn -0.7832 -0.6017 0.1568
vn -0.3815 -0.1394 -0.9138
vn -0.9924 -0.0726 -0.0991
vn -0.7754 0.0344 0.6305
vn -0.5999 0.0679 0.7972
vn -0.2680 -0.5442 0.7950
vn 0.0584 -0.9893 0.1334
vn 0.0045 -0.0742 0.9972
vn -0.9033 -0.0819 0.4212
vn 0.8139 0.0124 0.5809
vn -0.4256 0.2723 -0.8630
vn -0.8049 0.2295 0.5473
vn 0.2828 0.5603 -0.7785
vn 0.6696 0.3546 0.6526
vn 0.5427 0.5360 -0.6467
vn 0.4435 0.1691 0.8802
vn 0.5628 -0.0660 -0.8240
vn -0.7061 0.0907 0.7023
vn -0.8957 -0.0950 -0.4345
vn -0.0362 0.6024 -0.7974
vn -0.0139 0.2311 -0.9728
vn -0.0047 0.0782 -0.9969
vn -0.4590 0.0276 0.8880
vn 0.9098 0.0803 0.4073
vn 0.7233 0.0571 0.6882
vn -0.8186 -0.0478 0.5724
vn -0.9852 -0.0692 -0.1571
vn 0.9657 0.0548 -0.2540
vn -0.7225 -0.0724 0.6875
vn -0.0010 0.0268 -0.9996
vn 0.7255 0.0254 0.6878
usemtl katana
s 1
f 1/1/1 2/2/2 3/3/3
f 3/3/3 2/2/2 4/4/4
f 5/5/5 6/6/6 7/7/7
f 7/7/7 6/6/6 4/8/4
f 5/5/5 8/9/8 9/10/9
f 9/10/9 8/9/8 10/11/10
f 10/11/10 11/12/11 12/13/12
f 12/13/12 11/12/11 1/1/1
f 13/14/13 14/15/14 15/16/15
f 15/16/15 14/15/14 16/17/16
f 17/18/17 16/17/16 18/19/18
f 18/19/18 16/17/16 14/15/14
f 18/19/18 14/15/14 19/20/19
f 19/20/19 14/15/14 20/21/20
f 20/21/20 14/15/14 13/14/13
f 20/21/20 13/14/13 21/22/21
f 22/23/22 23/24/23 24/25/24
f 24/25/24 23/24/23 25/26/25
f 26/27/26 22/23/22 27/28/27
f 27/28/27 22/23/22 24/25/24
f 27/28/27 24/25/24 28/29/28
f 28/29/28 24/25/24 29/30/29
f 29/30/29 24/25/24 25/26/25
f 29/30/29 25/26/25 30/31/30
f 5/5/5 7/7/7 8/9/8
f 8/9/8 7/7/7 11/12/11
f 8/9/8 11/12/11 10/11/10
f 1/32/1 11/12/11 2/2/2
f 2/2/2 11/12/11 7/7/7
f 2/2/2 7/7/7 4/8/4
f 10/11/10 12/13/12 9/10/9
f 9/10/9 12/13/12 6/6/6
f 9/10/9 6/6/6 5/5/5
f 4/8/4 6/6/6 3/3/3
f 3/3/3 6/6/6 12/13/12
f 3/3/3 12/13/12 1/32/1
f 23/33/23 22/34/22 17/18/17
f 17/18/17 22/34/22 16/17/16
f 16/17/16 22/34/22 26/35/26
f 16/17/16 26/35/26 15/16/15
f 28/36/28 29/37/29 21/22/21
f 21/22/21 29/37/29 20/21/20
f 20/21/20 29/37/29 30/38/30
f 20/21/20 30/38/30 19/20/19
f 23/39/23 17/40/17 31/41/31
f 31/41/31 17/40/17 18/42/18
f 31/41/31 18/42/18 19/43/19
f 31/41/31 19/43/19 30/44/30
f 31/41/31 30/44/30 25/45/25
f 31/41/31 25/45/25 23/39/23
f 32/46/32 33/47/33 34/48/34
f 35/49/35 36/50/36 37/51/37
f 37/52/37 38/53/38 39/54/39
f 40/55/40 41/56/41 38/53/38
f 38/53/38 41/56/41 39/54/39
f 42/57/42 40/55/40 36/58/36
f 36/58/36 40/55/40 38/53/38
f 42/59/42 36/50/36 43/60/43
f 43/60/43 36/50/36 35/49/35
f 43/61/43 35/62/35 41/56/41
f 41/56/41 35/62/35 37/63/37
f 41/56/41 37/63/37 39/54/39
f 32/46/32 44/64/44 33/47/33
f 33/47/33 44/64/44 45/65/45
f 33/47/33 45/65/45 46/66/46
f 46/66/46 45/65/45 34/67/34
f 34/67/34 45/65/45 44/64/44
f 34/67/34 44/64/44 32/46/32
f 36/68/36 38/69/38 47/70/47
f 47/70/47 38/69/38 48/71/48
f 47/70/47 48/71/48 49/72/49
f 47/70/47 49/72/49 50/73/50
f 37/74/37 36/68/36 51/75/51
f 51/75/51 36/68/36 47/70/47
f 51/75/51 47/70/47 50/73/50
f 51/75/51 50/73/50 52/76/52
f 38/77/38 37/74/37 48/78/48
f 48/78/48 37/74/37 51/75/51
f 48/78/48 51/75/51 52/76/52
f 48/78/48 52/76/52 49/79/49
f 33/80/33 46/81/46 53/82/53
f 53/82/53 46/81/46 54/83/54
f 53/82/53 54/83/54 50/84/50
f 50/84/50 54/83/54 52/85/52
f 33/80/33 53/82/53 34/86/34
f 34/86/34 53/82/53 55/87/55
f 55/87/55 53/82/53 50/84/50
f 55/87/55 50/84/50 49/88/49
f 34/89/34 55/90/55 46/81/46
f 46/81/46 55/90/55 54/83/54
f 54/83/54 55/90/55 49/91/49
f 54/83/54 49/91/49 52/85/52
